ffmpeg started on 2025-05-12 at 14:44:45
Report written to "D:\Convert\FFMetrics\reports\psnr_report-6.txt"
Log level: 32
Command line:
ffmpeg -hide_banner -nostdin -i "G:\\\xc0\xed\xe8\xec\xe5\\\xce\xed\xe3\xee\xe8\xed\xe3\xe8\\!_35_\xcb\xe5\xf2\xee_2024\\DreamCast\\\xc4\xe8\xf1\xea\xe2\xe0\xeb\xe8\xf4\xe8\xf6\xe8\xf0\xee\xe2\xe0\xed \xef\xee \xe6\xe8\xe7\xed\xe8\\[DC] Isekai Shikkaku - 06_Telegram_HEVC.mkv" -i "G:\\\xc0\xed\xe8\xec\xe5\\\xce\xed\xe3\xee\xe8\xed\xe3\xe8\\!_35_\xcb\xe5\xf2\xee_2024\\DreamCast\\\xc4\xe8\xf1\xea\xe2\xe0\xeb\xe8\xf4\xe8\xf6\xe8\xf0\xee\xe2\xe0\xed \xef\xee \xe6\xe8\xe7\xed\xe8\\[DC] Isekai Shikkaku - 06_Telegram.mp4" -lavfi "[0:v]settb=AVTB,setpts=PTS-STARTPTS,format=pix_fmts=yuv420p10,fps=24000/1001,scale=1920:1080:flags=bicubic[main];[1:v]settb=AVTB,setpts=PTS-STARTPTS,format=pix_fmts=yuv420p,fps=24000/1001,scale=1920:1080:flags=bicubic[ref];[main][ref]psnr=eof_action=endall:stats_file='D\\:/Convert/FFMetrics/logs/psnr_logfile-6.txt'" -f null -
Input #0, matroska,webm, from 'G:\Аниме\Онгоинги\!_35_Лето_2024\DreamCast\Дисквалифицирован по жизни\[DC] Isekai Shikkaku - 06_Telegram_HEVC.mkv':
  Metadata:
    COMPATIBLE_BRANDS: isomiso2avc1mp41
    MAJOR_BRAND     : isom
    MINOR_VERSION   : 512
    ENCODER         : Lavf61.7.100
  Duration: 00:23:46.73, start: -0.021000, bitrate: 1010 kb/s
  Stream #0:0: Video: hevc (Main 10), yuv420p10le(tv, bt709, progressive), 1920x1080 [SAR 1:1 DAR 16:9], 23.98 fps, 23.98 tbr, 1k tbn (default)
      Metadata:
        HANDLER_NAME    : VideoHandler
        VENDOR_ID       : [0][0][0][0]
        ENCODER         : Lavc61.19.100 libx265
        BPS             : 814122
        DURATION        : 00:23:46.633708333
        NUMBER_OF_FRAMES: 34205
        NUMBER_OF_BYTES : 145181801
        _STATISTICS_WRITING_APP: mkvpropedit v66.0.0 ('Josie') 64-bit
        _STATISTICS_WRITING_DATE_UTC: 2025-05-07 10:54:36
        _STATISTICS_TAGS: BPS DURATION NUMBER_OF_FRAMES NUMBER_OF_BYTES
  Stream #0:1: Audio: aac (LC), 48000 Hz, stereo, fltp (default)
      Metadata:
        HANDLER_NAME    : SoundHandler
        VENDOR_ID       : [0][0][0][0]
        ENCODER         : Lavc61.19.100 aac
        BPS             : 192722
        DURATION        : 00:23:46.730000000
        NUMBER_OF_FRAMES: 66879
        NUMBER_OF_BYTES : 34370288
        _STATISTICS_WRITING_APP: mkvpropedit v66.0.0 ('Josie') 64-bit
        _STATISTICS_WRITING_DATE_UTC: 2025-05-07 10:54:36
        _STATISTICS_TAGS: BPS DURATION NUMBER_OF_FRAMES NUMBER_OF_BYTES
Input #1, mov,mp4,m4a,3gp,3g2,mj2, from 'G:\Аниме\Онгоинги\!_35_Лето_2024\DreamCast\Дисквалифицирован по жизни\[DC] Isekai Shikkaku - 06_Telegram.mp4':
  Metadata:
    major_brand     : isom
    minor_version   : 512
    compatible_brands: isomiso2avc1mp41
    encoder         : Lavf61.1.100
  Duration: 00:23:46.70, start: 0.000000, bitrate: 3776 kb/s
  Stream #1:0[0x1](und): Video: h264 (High) (avc1 / 0x31637661), yuv420p(tv, bt709, progressive), 1920x1080 [SAR 1:1 DAR 16:9], 3628 kb/s, 23.98 fps, 23.98 tbr, 24k tbn (default)
      Metadata:
        handler_name    : VideoHandler
        vendor_id       : [0][0][0][0]
        encoder         : Lavc61.3.100 h264_qsv
  Stream #1:1[0x2](und): Audio: aac (HE-AACv2) (mp4a / 0x6134706D), 48000 Hz, stereo, fltp, 144 kb/s (default)
      Metadata:
        handler_name    : SoundHandler
        vendor_id       : [0][0][0][0]
Stream mapping:
  Stream #0:0 (hevc) -> settb:default
  Stream #1:0 (h264) -> settb:default
  psnr:default -> Stream #0:0 (wrapped_avframe)
  Stream #0:1 -> #0:1 (aac (native) -> pcm_s16le (native))
Output #0, null, to 'pipe:':
  Metadata:
    COMPATIBLE_BRANDS: isomiso2avc1mp41
    MAJOR_BRAND     : isom
    MINOR_VERSION   : 512
    encoder         : Lavf61.7.100
  Stream #0:0: Video: wrapped_avframe, yuv420p10le(tv, bt709, progressive), 1920x1080 [SAR 1:1 DAR 16:9], q=2-31, 200 kb/s, 23.98 fps, 23.98 tbn
      Metadata:
        encoder         : Lavc61.19.100 wrapped_avframe
  Stream #0:1: Audio: pcm_s16le, 48000 Hz, stereo, s16, 1536 kb/s (default)
      Metadata:
        HANDLER_NAME    : SoundHandler
        VENDOR_ID       : [0][0][0][0]
        _STATISTICS_TAGS: BPS DURATION NUMBER_OF_FRAMES NUMBER_OF_BYTES
        BPS             : 192722
        DURATION        : 00:23:46.730000000
        NUMBER_OF_FRAMES: 66879
        NUMBER_OF_BYTES : 34370288
        _STATISTICS_WRITING_APP: mkvpropedit v66.0.0 ('Josie') 64-bit
        _STATISTICS_WRITING_DATE_UTC: 2025-05-07 10:54:36
        encoder         : Lavc61.19.100 pcm_s16le
frame=  172 fps=0.0 q=-0.0 size=N/A time=00:00:07.17 bitrate=N/A speed=  14x    frame=  431 fps=416 q=-0.0 size=N/A time=00:00:17.97 bitrate=N/A speed=17.3x    frame=  696 fps=451 q=-0.0 size=N/A time=00:00:29.02 bitrate=N/A speed=18.8x    frame=  964 fps=467 q=-0.0 size=N/A time=00:00:40.20 bitrate=N/A speed=19.5x    frame= 1206 fps=467 q=-0.0 size=N/A time=00:00:50.30 bitrate=N/A speed=19.5x    frame= 1464 fps=472 q=-0.0 size=N/A time=00:01:01.06 bitrate=N/A speed=19.7x    frame= 1684 fps=467 q=-0.0 size=N/A time=00:01:10.23 bitrate=N/A speed=19.5x    frame= 1949 fps=472 q=-0.0 size=N/A time=00:01:21.28 bitrate=N/A speed=19.7x    frame= 2203 fps=474 q=-0.0 size=N/A time=00:01:31.88 bitrate=N/A speed=19.8x    frame= 2384 fps=462 q=-0.0 size=N/A time=00:01:39.43 bitrate=N/A speed=19.3x    frame= 2588 fps=456 q=-0.0 size=N/A time=00:01:47.94 bitrate=N/A speed=  19x    frame= 2764 fps=447 q=-0.0 size=N/A time=00:01:55.28 bitrate=N/A speed=18.6x    frame= 2936 fps=437 q=-0.0 size=N/A time=00:02:02.45 bitrate=N/A speed=18.2x    frame= 3146 fps=436 q=-0.0 size=N/A time=00:02:11.21 bitrate=N/A speed=18.2x    frame= 3350 fps=433 q=-0.0 size=N/A time=00:02:19.72 bitrate=N/A speed=18.1x    frame= 3524 fps=427 q=-0.0 size=N/A time=00:02:26.98 bitrate=N/A speed=17.8x    frame= 3736 fps=426 q=-0.0 size=N/A time=00:02:35.82 bitrate=N/A speed=17.8x    frame= 3959 fps=426 q=-0.0 size=N/A time=00:02:45.12 bitrate=N/A speed=17.8x    frame= 4203 fps=429 q=-0.0 size=N/A time=00:02:55.30 bitrate=N/A speed=17.9x    frame= 4432 fps=429 q=-0.0 size=N/A time=00:03:04.85 bitrate=N/A speed=17.9x    frame= 4683 fps=432 q=-0.0 size=N/A time=00:03:15.32 bitrate=N/A speed=  18x    frame= 4930 fps=435 q=-0.0 size=N/A time=00:03:25.62 bitrate=N/A speed=18.1x    frame= 5158 fps=435 q=-0.0 size=N/A time=00:03:35.13 bitrate=N/A speed=18.1x    frame= 5401 fps=437 q=-0.0 size=N/A time=00:03:45.26 bitrate=N/A speed=18.2x    frame= 5618 fps=436 q=-0.0 size=N/A time=00:03:54.31 bitrate=N/A speed=18.2x    frame= 5890 fps=439 q=-0.0 size=N/A time=00:04:05.66 bitrate=N/A speed=18.3x    frame= 6161 fps=442 q=-0.0 size=N/A time=00:04:16.96 bitrate=N/A speed=18.4x    frame= 6418 fps=444 q=-0.0 size=N/A time=00:04:27.68 bitrate=N/A speed=18.5x    frame= 6675 fps=446 q=-0.0 size=N/A time=00:04:38.40 bitrate=N/A speed=18.6x    frame= 6932 fps=448 q=-0.0 size=N/A time=00:04:49.12 bitrate=N/A speed=18.7x    frame= 7140 fps=447 q=-0.0 size=N/A time=00:04:57.79 bitrate=N/A speed=18.6x    frame= 7385 fps=448 q=-0.0 size=N/A time=00:05:08.01 bitrate=N/A speed=18.7x    frame= 7659 fps=450 q=-0.0 size=N/A time=00:05:19.44 bitrate=N/A speed=18.8x    frame= 7881 fps=449 q=-0.0 size=N/A time=00:05:28.70 bitrate=N/A speed=18.7x    frame= 8117 fps=450 q=-0.0 size=N/A time=00:05:38.54 bitrate=N/A speed=18.7x    frame= 8364 fps=451 q=-0.0 size=N/A time=00:05:48.84 bitrate=N/A speed=18.8x    frame= 8600 fps=451 q=-0.0 size=N/A time=00:05:58.69 bitrate=N/A speed=18.8x    frame= 8879 fps=453 q=-0.0 size=N/A time=00:06:10.32 bitrate=N/A speed=18.9x    frame= 9141 fps=455 q=-0.0 size=N/A time=00:06:21.25 bitrate=N/A speed=  19x    frame= 9399 fps=456 q=-0.0 size=N/A time=00:06:32.01 bitrate=N/A speed=  19x    frame= 9631 fps=455 q=-0.0 size=N/A time=00:06:41.69 bitrate=N/A speed=  19x    frame= 9875 fps=456 q=-0.0 size=N/A time=00:06:51.86 bitrate=N/A speed=  19x    frame=10143 fps=457 q=-0.0 size=N/A time=00:07:03.04 bitrate=N/A speed=19.1x    frame=10400 fps=458 q=-0.0 size=N/A time=00:07:13.76 bitrate=N/A speed=19.1x    frame=10671 fps=460 q=-0.0 size=N/A time=00:07:25.06 bitrate=N/A speed=19.2x    frame=10934 fps=461 q=-0.0 size=N/A time=00:07:36.03 bitrate=N/A speed=19.2x    frame=11171 fps=461 q=-0.0 size=N/A time=00:07:45.92 bitrate=N/A speed=19.2x    frame=11413 fps=461 q=-0.0 size=N/A time=00:07:56.01 bitrate=N/A speed=19.2x    frame=11655 fps=461 q=-0.0 size=N/A time=00:08:06.11 bitrate=N/A speed=19.2x    frame=11924 fps=463 q=-0.0 size=N/A time=00:08:17.33 bitrate=N/A speed=19.3x    frame=12165 fps=463 q=-0.0 size=N/A time=00:08:27.38 bitrate=N/A speed=19.3x    frame=12402 fps=462 q=-0.0 size=N/A time=00:08:37.26 bitrate=N/A speed=19.3x    frame=12617 fps=462 q=-0.0 size=N/A time=00:08:46.23 bitrate=N/A speed=19.3x    frame=12867 fps=462 q=-0.0 size=N/A time=00:08:56.66 bitrate=N/A speed=19.3x    frame=13109 fps=462 q=-0.0 size=N/A time=00:09:06.75 bitrate=N/A speed=19.3x    frame=13385 fps=463 q=-0.0 size=N/A time=00:09:18.26 bitrate=N/A speed=19.3x    frame=13636 fps=464 q=-0.0 size=N/A time=00:09:28.73 bitrate=N/A speed=19.4x    frame=13901 fps=465 q=-0.0 size=N/A time=00:09:39.78 bitrate=N/A speed=19.4x    frame=14133 fps=465 q=-0.0 size=N/A time=00:09:49.46 bitrate=N/A speed=19.4x    frame=14369 fps=464 q=-0.0 size=N/A time=00:09:59.30 bitrate=N/A speed=19.4x    frame=14599 fps=464 q=-0.0 size=N/A time=00:10:08.89 bitrate=N/A speed=19.4x    frame=14787 fps=462 q=-0.0 size=N/A time=00:10:16.74 bitrate=N/A speed=19.3x    frame=15032 fps=463 q=-0.0 size=N/A time=00:10:26.95 bitrate=N/A speed=19.3x    frame=15295 fps=463 q=-0.0 size=N/A time=00:10:37.92 bitrate=N/A speed=19.3x    frame=15526 fps=463 q=-0.0 size=N/A time=00:10:47.56 bitrate=N/A speed=19.3x    frame=15764 fps=463 q=-0.0 size=N/A time=00:10:57.49 bitrate=N/A speed=19.3x    frame=15985 fps=463 q=-0.0 size=N/A time=00:11:06.70 bitrate=N/A speed=19.3x    frame=16208 fps=462 q=-0.0 size=N/A time=00:11:16.00 bitrate=N/A speed=19.3x    frame=16426 fps=462 q=-0.0 size=N/A time=00:11:25.10 bitrate=N/A speed=19.3x    frame=16632 fps=461 q=-0.0 size=N/A time=00:11:33.69 bitrate=N/A speed=19.2x    frame=16867 fps=461 q=-0.0 size=N/A time=00:11:43.49 bitrate=N/A speed=19.2x    frame=17087 fps=460 q=-0.0 size=N/A time=00:11:52.67 bitrate=N/A speed=19.2x    frame=17310 fps=460 q=-0.0 size=N/A time=00:12:01.97 bitrate=N/A speed=19.2x    frame=17592 fps=461 q=-0.0 size=N/A time=00:12:13.73 bitrate=N/A speed=19.2x    frame=17819 fps=461 q=-0.0 size=N/A time=00:12:23.20 bitrate=N/A speed=19.2x    frame=18101 fps=462 q=-0.0 size=N/A time=00:12:34.96 bitrate=N/A speed=19.3x    frame=18370 fps=463 q=-0.0 size=N/A time=00:12:46.18 bitrate=N/A speed=19.3x    frame=18629 fps=463 q=-0.0 size=N/A time=00:12:56.98 bitrate=N/A speed=19.3x    frame=18874 fps=463 q=-0.0 size=N/A time=00:13:07.20 bitrate=N/A speed=19.3x    frame=19133 fps=464 q=-0.0 size=N/A time=00:13:18.00 bitrate=N/A speed=19.3x    frame=19371 fps=464 q=-0.0 size=N/A time=00:13:27.93 bitrate=N/A speed=19.3x    frame=19631 fps=464 q=-0.0 size=N/A time=00:13:38.77 bitrate=N/A speed=19.4x    frame=19851 fps=464 q=-0.0 size=N/A time=00:13:47.95 bitrate=N/A speed=19.3x    frame=20061 fps=463 q=-0.0 size=N/A time=00:13:56.71 bitrate=N/A speed=19.3x    frame=20319 fps=464 q=-0.0 size=N/A time=00:14:07.47 bitrate=N/A speed=19.3x    frame=20581 fps=464 q=-0.0 size=N/A time=00:14:18.39 bitrate=N/A speed=19.4x    frame=20802 fps=464 q=-0.0 size=N/A time=00:14:27.61 bitrate=N/A speed=19.3x    frame=21064 fps=464 q=-0.0 size=N/A time=00:14:38.54 bitrate=N/A speed=19.4x    frame=21327 fps=465 q=-0.0 size=N/A time=00:14:49.51 bitrate=N/A speed=19.4x    frame=21465 fps=463 q=-0.0 size=N/A time=00:14:55.26 bitrate=N/A speed=19.3x    frame=21689 fps=462 q=-0.0 size=N/A time=00:15:04.61 bitrate=N/A speed=19.3x    frame=21925 fps=462 q=-0.0 size=N/A time=00:15:14.45 bitrate=N/A speed=19.3x    frame=22165 fps=462 q=-0.0 size=N/A time=00:15:24.46 bitrate=N/A speed=19.3x    frame=22423 fps=463 q=-0.0 size=N/A time=00:15:35.22 bitrate=N/A speed=19.3x    frame=22682 fps=463 q=-0.0 size=N/A time=00:15:46.02 bitrate=N/A speed=19.3x    frame=22946 fps=464 q=-0.0 size=N/A time=00:15:57.03 bitrate=N/A speed=19.3x    frame=23219 fps=464 q=-0.0 size=N/A time=00:16:08.42 bitrate=N/A speed=19.4x    frame=23479 fps=465 q=-0.0 size=N/A time=00:16:19.26 bitrate=N/A speed=19.4x    frame=23739 fps=465 q=-0.0 size=N/A time=00:16:30.11 bitrate=N/A speed=19.4x    frame=23984 fps=465 q=-0.0 size=N/A time=00:16:40.33 bitrate=N/A speed=19.4x    frame=24232 fps=465 q=-0.0 size=N/A time=00:16:50.67 bitrate=N/A speed=19.4x    frame=24492 fps=466 q=-0.0 size=N/A time=00:17:01.52 bitrate=N/A speed=19.4x    frame=24756 fps=466 q=-0.0 size=N/A time=00:17:12.53 bitrate=N/A speed=19.4x    frame=25030 fps=467 q=-0.0 size=N/A time=00:17:23.95 bitrate=N/A speed=19.5x    frame=25239 fps=466 q=-0.0 size=N/A time=00:17:32.67 bitrate=N/A speed=19.4x    frame=25490 fps=466 q=-0.0 size=N/A time=00:17:43.14 bitrate=N/A speed=19.5x    frame=25747 fps=467 q=-0.0 size=N/A time=00:17:53.86 bitrate=N/A speed=19.5x    frame=26017 fps=467 q=-0.0 size=N/A time=00:18:05.12 bitrate=N/A speed=19.5x    frame=26269 fps=467 q=-0.0 size=N/A time=00:18:15.63 bitrate=N/A speed=19.5x    frame=26521 fps=468 q=-0.0 size=N/A time=00:18:26.14 bitrate=N/A speed=19.5x    frame=26795 fps=468 q=-0.0 size=N/A time=00:18:37.57 bitrate=N/A speed=19.5x    frame=27054 fps=468 q=-0.0 size=N/A time=00:18:48.37 bitrate=N/A speed=19.5x    frame=27333 fps=469 q=-0.0 size=N/A time=00:19:00.01 bitrate=N/A speed=19.6x    frame=27566 fps=469 q=-0.0 size=N/A time=00:19:09.73 bitrate=N/A speed=19.6x    frame=27831 fps=469 q=-0.0 size=N/A time=00:19:20.78 bitrate=N/A speed=19.6x    frame=28114 fps=470 q=-0.0 size=N/A time=00:19:32.58 bitrate=N/A speed=19.6x    frame=28373 fps=470 q=-0.0 size=N/A time=00:19:43.39 bitrate=N/A speed=19.6x    frame=28630 fps=470 q=-0.0 size=N/A time=00:19:54.10 bitrate=N/A speed=19.6x    frame=28864 fps=470 q=-0.0 size=N/A time=00:20:03.86 bitrate=N/A speed=19.6x    frame=29105 fps=470 q=-0.0 size=N/A time=00:20:13.92 bitrate=N/A speed=19.6x    frame=29345 fps=470 q=-0.0 size=N/A time=00:20:23.93 bitrate=N/A speed=19.6x    frame=29591 fps=470 q=-0.0 size=N/A time=00:20:34.19 bitrate=N/A speed=19.6x    frame=29839 fps=470 q=-0.0 size=N/A time=00:20:44.53 bitrate=N/A speed=19.6x    frame=30120 fps=471 q=-0.0 size=N/A time=00:20:56.25 bitrate=N/A speed=19.6x    frame=30385 fps=471 q=-0.0 size=N/A time=00:21:07.30 bitrate=N/A speed=19.7x    frame=30644 fps=472 q=-0.0 size=N/A time=00:21:18.11 bitrate=N/A speed=19.7x    frame=30900 fps=472 q=-0.0 size=N/A time=00:21:28.78 bitrate=N/A speed=19.7x    frame=31129 fps=471 q=-0.0 size=N/A time=00:21:38.33 bitrate=N/A speed=19.7x    frame=31333 fps=471 q=-0.0 size=N/A time=00:21:46.84 bitrate=N/A speed=19.6x    frame=31563 fps=471 q=-0.0 size=N/A time=00:21:56.44 bitrate=N/A speed=19.6x    frame=31804 fps=471 q=-0.0 size=N/A time=00:22:06.49 bitrate=N/A speed=19.6x    frame=32044 fps=471 q=-0.0 size=N/A time=00:22:16.50 bitrate=N/A speed=19.6x    frame=32263 fps=470 q=-0.0 size=N/A time=00:22:25.63 bitrate=N/A speed=19.6x    frame=32452 fps=469 q=-0.0 size=N/A time=00:22:33.51 bitrate=N/A speed=19.6x    frame=32695 fps=469 q=-0.0 size=N/A time=00:22:43.65 bitrate=N/A speed=19.6x    frame=32932 fps=469 q=-0.0 size=N/A time=00:22:53.53 bitrate=N/A speed=19.6x    frame=33197 fps=470 q=-0.0 size=N/A time=00:23:04.59 bitrate=N/A speed=19.6x    frame=33445 fps=470 q=-0.0 size=N/A time=00:23:14.93 bitrate=N/A speed=19.6x    frame=33734 fps=470 q=-0.0 size=N/A time=00:23:26.98 bitrate=N/A speed=19.6x    frame=33935 fps=470 q=-0.0 size=N/A time=00:23:35.37 bitrate=N/A speed=19.6x    frame=34204 fps=470 q=-0.0 size=N/A time=00:23:46.59 bitrate=N/A speed=19.6x    [Parsed_psnr_10 @ 000001df2abfae40] PSNR y:49.207650 u:49.126478 v:49.770651 average:49.282644 min:39.913299 max:inf
[out#0/null @ 000001df2aeb1440] video:14697KiB audio:267516KiB subtitle:0KiB other streams:0KiB global headers:0KiB muxing overhead: unknown
frame=34205 fps=470 q=-0.0 Lsize=N/A time=00:23:46.63 bitrate=N/A speed=19.6x    
